<?xml version="1.0" encoding="UTF-8" standalone="no"?>
<!-- Generator: Adobe Illustrator 22.1.0, SVG Export Plug-In . SVG Version: 6.00 Build 0)  -->

<svg
   version="1.1"
   id="Layer_1"
   x="0px"
   y="0px"
   viewBox="0 0 278.88595 39.999999"
   xml:space="preserve"
   sodipodi:docname="OSU CON Template logo, 279x40px.svg"
   width="278.88596"
   height="40"
   inkscape:version="1.2.1 (9c6d41e410, 2022-07-14)"
   xmlns:inkscape="http://www.inkscape.org/namespaces/inkscape"
   xmlns:sodipodi="http://sodipodi.sourceforge.net/DTD/sodipodi-0.dtd"
   xmlns="http://www.w3.org/2000/svg"
   xmlns:svg="http://www.w3.org/2000/svg"><defs
   id="defs101" /><sodipodi:namedview
   id="namedview99"
   pagecolor="#ffffff"
   bordercolor="#000000"
   borderopacity="0.25"
   inkscape:showpageshadow="2"
   inkscape:pageopacity="0.0"
   inkscape:pagecheckerboard="0"
   inkscape:deskcolor="#d1d1d1"
   showgrid="false"
   inkscape:zoom="1.6275427"
   inkscape:cx="168.65917"
   inkscape:cy="33.793277"
   inkscape:window-width="1920"
   inkscape:window-height="1017"
   inkscape:window-x="-8"
   inkscape:window-y="-8"
   inkscape:window-maximized="1"
   inkscape:current-layer="Layer_1" />
<style
   type="text/css"
   id="style2">
	.st0{fill:#717272;}
	.st1{fill:#BB0000;}
</style>
<g
   id="g96"
   transform="scale(0.53050398)">
	<g
   id="g36">
		<path
   class="st0"
   d="m 81.4,62.1 c 0,-4.8 3.5,-8 7.9,-8 2.7,0 4.6,1.3 5.9,3.1 l -1.6,0.9 c -0.9,-1.3 -2.5,-2.2 -4.3,-2.2 -3.4,0 -6,2.6 -6,6.3 0,3.7 2.6,6.3 6,6.3 1.8,0 3.4,-1 4.3,-2.2 l 1.6,0.9 C 93.9,69 92,70.3 89.3,70.3 84.9,70.1 81.4,66.8 81.4,62.1 Z"
   id="path4" />
		<path
   class="st0"
   d="m 96.5,62.1 c 0,-4.6 3.1,-8 7.7,-8 4.6,0 7.7,3.4 7.7,8 0,4.6 -3.1,8 -7.7,8 -4.6,0 -7.7,-3.5 -7.7,-8 z m 13.3,0 c 0,-3.6 -2.2,-6.3 -5.7,-6.3 -3.5,0 -5.7,2.7 -5.7,6.3 0,3.6 2.2,6.3 5.7,6.3 3.5,-0.1 5.7,-2.7 5.7,-6.3 z"
   id="path6" />
		<path
   class="st0"
   d="M 114,69.8 V 54.3 h 1.9 V 68 h 7.2 v 1.7 H 114 Z"
   id="path8" />
		<path
   class="st0"
   d="M 124.8,69.8 V 54.3 h 1.9 V 68 h 7.2 v 1.7 h -9.1 z"
   id="path10" />
		<path
   class="st0"
   d="M 135.9,69.8 V 54.3 H 146 V 56 h -8.2 v 5 h 8 v 1.7 h -8 V 68 h 8.2 v 1.7 z"
   id="path12" />
		<path
   class="st0"
   d="m 147.9,62.1 c 0,-4.8 3.5,-8 7.9,-8 2.8,0 4.7,1.2 6,2.9 l -1.5,1 c -1,-1.3 -2.6,-2.1 -4.5,-2.1 -3.4,0 -6,2.6 -6,6.3 0,3.7 2.6,6.3 6,6.3 1.9,0 3.4,-0.9 4.2,-1.7 v -3.1 h -5.3 V 62 h 7.2 v 5.4 c -1.4,1.6 -3.5,2.7 -6.1,2.7 -4.3,0 -7.9,-3.2 -7.9,-8 z"
   id="path14" />
		<path
   class="st0"
   d="M 164.5,69.8 V 54.3 h 10.1 V 56 h -8.2 v 5 h 8 v 1.7 h -8 V 68 h 8.2 v 1.7 z"
   id="path16" />
		<path
   class="st0"
   d="m 181.9,62.1 c 0,-4.6 3.1,-8 7.7,-8 4.6,0 7.7,3.4 7.7,8 0,4.6 -3.1,8 -7.7,8 -4.6,0 -7.7,-3.5 -7.7,-8 z m 13.4,0 c 0,-3.6 -2.2,-6.3 -5.7,-6.3 -3.5,0 -5.7,2.7 -5.7,6.3 0,3.6 2.2,6.3 5.7,6.3 3.4,-0.1 5.7,-2.7 5.7,-6.3 z"
   id="path18" />
		<path
   class="st0"
   d="M 199.7,69.8 V 54.3 h 10.1 V 56 h -8.2 v 5 h 8 v 1.7 h -8 v 7 z"
   id="path20" />
		<path
   class="st0"
   d="m 228.2,69.8 -9,-12.3 v 12.3 h -1.9 V 54.3 h 2 l 8.9,12.1 V 54.3 h 1.9 v 15.5 z"
   id="path22" />
		<path
   class="st0"
   d="m 233.1,63.8 v -9.5 h 1.9 v 9.4 c 0,2.8 1.5,4.6 4.4,4.6 2.9,0 4.4,-1.8 4.4,-4.6 v -9.4 h 1.9 v 9.4 c 0,3.8 -2.1,6.3 -6.3,6.3 -4.2,0.1 -6.3,-2.4 -6.3,-6.2 z"
   id="path24" />
		<path
   class="st0"
   d="m 257.7,69.8 -3.9,-6.1 h -3.1 v 6.1 h -1.9 V 54.3 h 6.2 c 2.8,0 4.9,1.8 4.9,4.7 0,2.8 -1.9,4.3 -4,4.5 l 4.2,6.3 c 0,0 -2.4,0 -2.4,0 z M 257.9,59 c 0,-1.8 -1.3,-2.9 -3.1,-2.9 h -4.1 V 62 h 4.1 c 1.8,-0.1 3.1,-1.3 3.1,-3 z"
   id="path26" />
		<path
   class="st0"
   d="m 261.4,67.6 1.2,-1.5 c 1,1.2 2.7,2.2 4.8,2.2 2.8,0 3.6,-1.5 3.6,-2.7 0,-4 -9.2,-1.8 -9.2,-7.3 0,-2.5 2.3,-4.3 5.3,-4.3 2.3,0 4.2,0.8 5.5,2.2 l -1.2,1.4 c -1.2,-1.3 -2.8,-1.9 -4.5,-1.9 -1.8,0 -3.2,1 -3.2,2.5 0,3.5 9.2,1.5 9.2,7.3 0,2.2 -1.5,4.5 -5.7,4.5 -2.6,0.1 -4.6,-1 -5.8,-2.4 z"
   id="path28" />
		<path
   class="st0"
   d="M 275.3,69.8 V 54.3 h 1.9 v 15.5 z"
   id="path30" />
		<path
   class="st0"
   d="m 291.2,69.8 -9,-12.3 v 12.3 h -1.9 V 54.3 h 2 l 8.9,12.1 V 54.3 h 1.9 v 15.5 z"
   id="path32" />
		<path
   class="st0"
   d="m 295.5,62.1 c 0,-4.8 3.5,-8 7.9,-8 2.8,0 4.7,1.2 6,2.9 l -1.5,1 c -1,-1.3 -2.6,-2.1 -4.5,-2.1 -3.4,0 -6,2.6 -6,6.3 0,3.7 2.6,6.3 6,6.3 1.9,0 3.4,-0.9 4.2,-1.7 v -3.1 h -5.3 V 62 h 7.2 v 5.4 c -1.4,1.6 -3.5,2.7 -6.1,2.7 -4.4,0 -7.9,-3.2 -7.9,-8 z"
   id="path34" />
	</g>
	<g
   id="g44">
		<path
   class="st1"
   d="m 15.6,21.1 5,-5 h 16.2 l 5,5 v 33.4 l -5,5 H 20.7 l -5,-5 V 21.1 Z M 54.6,15.6 42.2,3.3 H 15.4 L 2.9,15.7 V 59.8 L 15.3,72.3 H 42.1 L 54.5,60 V 15.6 Z"
   id="path38" />
		<path
   class="st0"
   d="M 1.3,60.5 V 14.8 L 14.8,1.3 H 43 L 56.3,14.6 V 60.7 L 42.8,74 H 14.7 Z M 14.2,0 0,14.2 V 61.1 L 14.1,75.4 H 43.4 L 57.6,61.2 v -47 L 43.5,0 Z"
   id="path40" />
		<path
   class="st0"
   d="m 22.1,19.3 h 13.3 l 3.2,3.2 v 30.7 l -3.1,3.1 H 22 l -3,-3 V 22.4 Z m 17.8,2.7 -4,-4 H 21.6 l -3.9,3.9 v 31.7 l 3.8,3.8 h 14.6 l 3.8,-3.8 z"
   id="path42" />
	</g>
	<g
   id="g94">
		<polygon
   class="st0"
   points="525.7,40.7 76.6,40.7 76.6,42 525.7,42 "
   id="polygon46" />
		<g
   id="g92">
			<path
   class="st0"
   d="M 94.4,9.7 94,6.8 h -5.3 v 18.9 l 2.8,0.4 v 1.8 H 81.4 v -1.8 l 2.8,-0.4 V 6.8 H 78.9 L 78.5,9.7 H 76.6 V 4.4 h 19.7 v 5.4 z"
   id="path48" />
			<path
   class="st0"
   d="m 109.1,27.9 v -1.7 l 2.6,-0.4 v -6.4 h -7 v 6.4 l 2.6,0.4 v 1.7 h -9.6 v -1.7 l 2.7,-0.4 V 11.6 L 97.7,11.2 V 9.5 h 9.6 v 1.7 l -2.6,0.4 v 5.5 h 7 v -5.5 l -2.6,-0.4 V 9.5 h 9.6 v 1.7 l -2.7,0.4 v 14.2 l 2.7,0.4 v 1.7 c 0,0 -9.6,0 -9.6,0 z"
   id="path50" />
			<path
   class="st0"
   d="m 136.6,27.9 h -15.9 v -1.7 l 2.7,-0.4 V 11.6 l -2.7,-0.4 V 9.5 h 15.9 v 4.9 h -1.8 l -0.4,-2.6 h -6.7 v 5.5 h 4.2 l 0.4,-2.4 h 1.6 v 6.8 h -1.6 l -0.4,-2.4 h -4.2 v 6.4 h 6.7 l 0.4,-2.6 h 1.8 z"
   id="path52" />
			<path
   class="st0"
   d="m 159,28.3 c -7.3,0 -10.5,-4.4 -10.5,-12.3 0,-7.9 3.2,-12.1 10.5,-12.1 7.3,0 10.5,4.4 10.5,12.3 0,7.9 -3.2,12.1 -10.5,12.1 z m 0,-21.8 c -3.9,0 -5.9,3.1 -5.9,9.6 0,6.5 1.9,9.7 5.8,9.7 3.9,0 5.9,-3.1 5.9,-9.6 0,-6.5 -1.9,-9.7 -5.8,-9.7 z"
   id="path54" />
			<path
   class="st0"
   d="m 182.8,27.9 v -1.7 l 2.6,-0.4 v -6.4 h -7 v 6.4 l 2.6,0.4 v 1.7 h -9.6 v -1.7 l 2.7,-0.4 V 11.6 l -2.7,-0.4 V 9.5 h 9.6 v 1.7 l -2.6,0.4 v 5.5 h 7 v -5.5 l -2.6,-0.4 V 9.5 h 9.6 v 1.7 l -2.7,0.4 v 14.2 l 2.7,0.4 v 1.7 c 0,0 -9.6,0 -9.6,0 z"
   id="path56" />
			<path
   class="st0"
   d="m 194.6,27.9 v -1.7 l 2.7,-0.4 V 11.6 l -2.7,-0.4 V 9.5 h 9.7 v 1.7 l -2.7,0.4 v 14.2 l 2.7,0.4 v 1.7 z"
   id="path58" />
			<path
   class="st0"
   d="m 214.7,28.2 c -6.2,0 -8.9,-3.5 -8.9,-9.6 0,-6.1 2.7,-9.5 9,-9.5 6.2,0 8.9,3.5 8.9,9.6 0,6.1 -2.8,9.5 -9,9.5 z m 0,-16.6 c -3,0 -4.5,2.1 -4.5,7.1 0,5 1.5,7.2 4.5,7.2 3,0 4.6,-2.1 4.6,-7.1 -0.1,-5.1 -1.6,-7.2 -4.6,-7.2 z"
   id="path60" />
			<path
   class="st0"
   d="m 242.9,28.3 c -4.1,0 -7.3,-1.4 -7.3,-1.4 v -5 h 2 l 0.5,3.2 c 0,0 1.5,0.5 4.2,0.5 2.7,0 5.2,-0.9 5.2,-3.9 0,-2.7 -1.9,-3.1 -4.2,-3.9 -3.7,-1.2 -7.6,-2.3 -7.6,-7.3 0,-4.1 2.6,-6.6 7.9,-6.6 2.5,0 5,0.6 7,1.3 v 4.7 h -2 l -0.5,-3 c 0,0 -2.1,-0.5 -4.1,-0.5 -2,0 -4.1,0.7 -4.1,3.4 0,5.9 11.8,2 11.8,11.4 -0.1,4.5 -3,7.1 -8.8,7.1 z"
   id="path62" />
			<path
   class="st0"
   d="m 268.2,14.6 -0.4,-2.8 h -4.1 v 14.1 l 2.7,0.4 V 28 h -9.7 v -1.7 l 2.7,-0.4 V 11.7 h -4.1 l -0.4,2.8 h -1.8 V 9.4 h 16.8 v 5.1 h -1.7 z"
   id="path64" />
			<path
   class="st0"
   d="m 281.3,27.9 v -1.7 l 2.6,-0.4 -1.3,-3.3 h -7 l -1.3,3.3 2.6,0.4 v 1.7 h -8 v -1.7 l 2.6,-0.4 6.3,-16.3 h 4 l 6.3,16.3 2.6,0.4 v 1.7 z m -2.2,-14.9 -2.7,7.3 h 5.3 z"
   id="path66" />
			<path
   class="st0"
   d="m 304.7,14.6 -0.4,-2.8 h -4.1 v 14.1 l 2.7,0.4 V 28 h -9.7 v -1.7 l 2.7,-0.4 V 11.7 h -4.1 l -0.4,2.8 h -1.7 V 9.4 h 16.8 v 5.1 h -1.8 z"
   id="path68" />
			<path
   class="st0"
   d="m 324,27.9 h -15.9 v -1.7 l 2.7,-0.4 V 11.6 l -2.7,-0.4 V 9.5 H 324 v 4.9 h -1.8 l -0.4,-2.6 h -6.7 v 5.5 h 4.2 l 0.4,-2.4 h 1.6 v 6.8 h -1.6 l -0.4,-2.4 h -4.2 v 6.4 h 6.7 l 0.4,-2.6 h 1.8 z"
   id="path70" />
			<path
   class="st0"
   d="m 356.1,6.6 v 12 c 0,4 -0.2,5.8 -2.1,7.7 -1.4,1.4 -3.6,2 -7,2 -3.3,0 -5.8,-0.9 -7.3,-2.5 -2,-2 -1.8,-5 -1.8,-7.6 V 6.6 L 335.1,6.2 V 4.4 h 10.1 v 1.8 l -2.8,0.4 v 13.8 c 0,3.9 2.1,5.4 5.4,5.4 1.8,0 3.2,-0.4 4.1,-1.4 0.8,-0.9 1.3,-2.2 1.3,-4 V 6.6 L 350.4,6.2 V 4.4 h 8.6 v 1.8 z"
   id="path72" />
			<path
   class="st0"
   d="M 378.3,11.6 V 27.9 H 375 l -9.4,-13.2 v 11.1 l 2.7,0.4 v 1.7 H 360 v -1.7 l 2.7,-0.4 V 11.6 L 360,11.2 V 9.5 h 6.4 l 9,12.6 V 11.6 l -2.7,-0.4 V 9.5 h 8.3 v 1.7 z"
   id="path74" />
			<path
   class="st0"
   d="m 383.2,27.9 v -1.7 l 2.7,-0.4 V 11.6 l -2.7,-0.4 V 9.5 h 9.7 v 1.7 l -2.7,0.4 v 14.2 l 2.7,0.4 v 1.7 z"
   id="path76" />
			<path
   class="st0"
   d="m 413.5,11.6 -6.1,16.3 h -4.1 l -6.1,-16.3 -2.6,-0.4 V 9.5 h 9.6 v 1.7 l -2.6,0.4 4.7,12.6 4.6,-12.6 -2.6,-0.4 V 9.5 h 8 v 1.7 z"
   id="path78" />
			<path
   class="st0"
   d="m 433.4,27.9 h -15.9 v -1.7 l 2.7,-0.4 V 11.6 l -2.7,-0.4 V 9.5 h 15.9 v 4.9 h -1.7 l -0.4,-2.6 h -6.7 v 5.5 h 4.2 l 0.4,-2.4 h 1.6 v 6.8 h -1.6 l -0.4,-2.4 h -4.2 v 6.4 h 6.7 l 0.4,-2.6 h 1.8 z"
   id="path80" />
			<path
   class="st0"
   d="m 449.6,27.9 -1.7,-4.2 c -1.2,-2.8 -1.9,-4.1 -4.3,-4.1 h -0.3 v 6.2 l 2.6,0.4 v 1.7 h -9.6 V 26.2 L 439,25.8 V 11.6 l -2.7,-0.4 V 9.5 h 9.3 c 1.9,0 4.1,0.1 5.6,1.4 0.9,0.9 1.5,2.1 1.5,3.4 0,2.1 -1.4,4.1 -3.3,4.7 1.5,1.2 2.9,5 3.7,6.8 l 2.6,0.4 v 1.7 c 0,0 -6.1,0 -6.1,0 z m -2,-15.6 c -0.7,-0.7 -2.2,-0.7 -3.2,-0.7 h -1.2 v 5.9 h 0.7 c 1.2,0 2.8,0.1 3.7,-0.8 0.6,-0.6 0.7,-1.4 0.7,-2.2 0.1,-0.8 -0.1,-1.6 -0.7,-2.2 z"
   id="path82" />
			<path
   class="st0"
   d="m 463.9,28.2 c -3.4,0 -6.3,-1.2 -6.3,-1.2 v -4.8 h 1.9 l 0.5,3 c 0,0 1.3,0.4 3.4,0.4 2.2,0 4,-0.7 4,-2.7 0,-1.4 -0.8,-1.9 -1.9,-2.3 -3.4,-1.2 -7.8,-1.7 -7.8,-6.3 0,-3.3 2.3,-5.3 6.8,-5.3 2.1,0 4.2,0.4 6.1,1.1 v 4.6 h -1.9 l -0.5,-2.9 c 0,0 -1.5,-0.4 -3.3,-0.4 -1.7,0 -3.2,0.6 -3.2,2.4 0,4.1 9.7,1.4 9.7,8.7 0,3.7 -2.6,5.7 -7.5,5.7 z"
   id="path84" />
			<path
   class="st0"
   d="m 473.8,27.9 v -1.7 l 2.7,-0.4 V 11.6 l -2.7,-0.4 V 9.5 h 9.7 v 1.7 l -2.7,0.4 v 14.2 l 2.7,0.4 v 1.7 z"
   id="path86" />
			<path
   class="st0"
   d="m 500.5,14.6 -0.4,-2.8 H 496 v 14.1 l 2.7,0.4 V 28 H 489 v -1.7 l 2.7,-0.4 V 11.7 h -4 l -0.4,2.8 h -1.8 V 9.4 h 16.8 v 5.1 h -1.8 z"
   id="path88" />
			<path
   class="st0"
   d="m 521.7,11.6 -5.4,8.3 v 5.9 l 2.7,0.4 v 1.7 h -9.7 V 26.2 L 512,25.8 V 19.9 L 506.6,11.6 504,11.2 V 9.5 h 9.8 v 1.7 l -2.6,0.4 3.8,6 3.8,-6 -2.5,-0.4 V 9.5 h 8.1 v 1.7 z"
   id="path90" />
		</g>
	</g>
</g>
</svg>
